PathFileType	4	(X/Y/Z)	s01c0302.trc
DataRate	CameraRate	NumFrames	NumMarkers	Units	OrigDataRate	OrigDataStartFrame	OrigNumFrames
200	200	4	48	mm	200	1750	2000
Frame#	Time	racr			lacr			c7			jug			rlel			rdr			llel			ldr			s2			lic			ric			lasi			rasi			rpsi			lpsi			rgt			lgt			rth1			rth2			rth3			rth4			rlfc			rsh1			rsh2			rsh3			rsh4			rlmal			rmmal			rcal			rtoe			rmt5			lth1			lth2			lth4			lth3			llfc			lsh1			lsh2			lsh3			lsh4			llmal			lmmal			lcal			ltoe			lmt5			SBIKE			LBIKE			RBIKE			
		X1	Y1	Z1	X2	Y2	Z2	X3	Y3	Z3	X4	Y4	Z4	X5	Y5	Z5	X6	Y6	Z6	X7	Y7	Z7	X8	Y8	Z8	X9	Y9	Z9	X10	Y10	Z10	X11	Y11	Z11	X12	Y12	Z12	X13	Y13	Z13	X14	Y14	Z14	X15	Y15	Z15	X16	Y16	Z16	X17	Y17	Z17	X18	Y18	Z18	X19	Y19	Z19	X20	Y20	Z20	X21	Y21	Z21	X22	Y22	Z22	X23	Y23	Z23	X24	Y24	Z24	X25	Y25	Z25	X26	Y26	Z26	X27	Y27	Z27	X28	Y28	Z28	X29	Y29	Z29	X30	Y30	Z30	X31	Y31	Z31	X32	Y32	Z32	X33	Y33	Z33	X34	Y34	Z34	X35	Y35	Z35	X36	Y36	Z36	X37	Y37	Z37	X38	Y38	Z38	X39	Y39	Z39	X40	Y40	Z40	X41	Y41	Z41	X42	Y42	Z42	X43	Y43	Z43	X44	Y44	Z44	X45	Y45	Z45	X46	Y46	Z46	X47	Y47	Z47	X48	Y48	Z48	
1750	8.7500	559.179138	1352.492920	-126.614944	595.093140	1344.070312	-433.639648	527.482727	1416.090210	-279.955109	527.960388	1255.493652	-279.880646	598.035095	1079.846069	-23.182728	728.343872	855.279114	-58.195145	597.804993	1066.665771	-540.676880	717.270813	865.123230	-440.286957	0.000000	0.000000	-0.000000	169.081558	1163.546021	-448.704224	152.276245	1212.536987	-136.147202	149.271805	1107.945679	-425.260742	160.306992	1160.380371	-156.496155	25.638159	1252.801514	-247.980988	25.401525	1237.127930	-351.482208	73.799042	1135.917480	-80.090111	58.023952	1039.555664	-462.718933	173.251297	1062.340332	-46.834774	250.072586	1030.716553	-42.759678	330.818359	989.346497	-43.820808	273.164337	1076.285645	-67.264351	399.837402	900.528259	-55.454422	307.291870	823.419556	-38.383793	250.531845	761.273865	-50.313293	186.153244	703.118774	-70.744522	289.689911	728.570496	-82.481102	98.225975	614.917297	-99.304230	145.170731	615.479370	-174.269394	43.792042	602.082764	-155.042023	289.666077	488.186646	-133.784256	179.881927	498.172577	-67.098465	78.269241	916.795837	-462.842316	125.214310	841.049561	-460.115112	172.507294	869.312927	-457.827209	163.635437	767.545654	-437.985046	209.058411	656.573425	-418.344543	167.685150	552.870178	-448.655090	169.694763	466.079163	-441.126038	169.018997	381.296509	-425.622925	225.309326	470.446228	-414.128540	166.756775	253.571915	-403.799225	0.000000	0.000000	-0.000000	123.421432	224.238312	-362.151367	397.583618	181.685074	-373.949829	290.566284	168.629776	-438.602081	-224.398422	892.821838	-252.744675	-12.553173	84.590813	-456.088348	-21.606003	80.948555	-55.966190	
1751	8.7550	558.289490	1352.203369	-126.780983	593.928101	1343.718018	-433.833038	526.320679	1415.789185	-280.090515	527.061218	1255.201172	-279.924622	597.672546	1079.701538	-23.203878	728.272705	855.281982	-58.134335	596.986023	1066.375732	-541.012146	717.056458	865.201538	-440.388367	0.000000	0.000000	-0.000000	167.839630	1163.319092	-448.695862	151.302917	1212.285522	-136.052887	148.028564	1107.653931	-425.192535	159.269180	1160.060547	-156.386520	24.555298	1252.659424	-247.800919	24.340622	1236.963257	-351.373199	72.869843	1135.744995	-79.990898	56.735985	1039.371704	-462.565155	172.179779	1062.067627	-46.911724	249.003311	1030.371948	-42.803474	329.652954	988.827637	-43.917599	272.151886	1075.850830	-67.282967	398.656006	899.986023	-55.571266	305.962585	822.994812	-38.522655	249.213348	760.812988	-50.378513	184.814423	702.643860	-70.814560	288.316895	728.079773	-82.556175	96.862366	614.391113	-99.373726	143.953491	614.985840	-174.777847	42.473270	601.473999	-155.104126	288.610352	487.993713	-133.749985	178.789383	497.877350	-67.073387	77.131042	916.616089	-462.695160	124.151428	840.938904	-460.032990	171.415573	869.258240	-457.919617	162.751633	767.460632	-437.968933	208.472336	656.707642	-418.303650	167.385620	552.843079	-448.607635	169.627884	466.053589	-441.063660	169.225571	381.249237	-425.583679	225.253448	470.581238	-414.104431	167.293121	253.487213	-403.829987	0.000000	0.000000	-0.000000	124.105133	224.017944	-362.130035	398.388672	182.373413	-373.930298	291.429260	168.937744	-438.582214	-224.406311	892.819946	-252.759338	-12.551889	84.587006	-456.087036	-21.589729	80.933098	-55.963192	
1752	8.7600	557.367920	1351.981812	-126.929382	592.752747	1343.395630	-433.999054	525.166382	1415.479004	-280.235016	526.012329	1254.833008	-280.150177	597.308960	1079.551270	-23.198244	728.204712	855.297485	-58.096394	596.168518	1066.023560	-541.398499	716.880310	865.260193	-440.499420	0.000000	0.000000	-0.000000	166.588516	1163.025513	-448.628357	150.249283	1212.017822	-135.993942	146.779556	1107.388550	-425.120453	158.135620	1159.736328	-156.366058	23.432041	1252.530762	-247.647842	23.150085	1236.774292	-351.195801	71.846550	1135.591797	-79.859741	55.443573	1039.219116	-462.451263	171.140289	1061.796631	-46.925926	247.956696	1029.978760	-42.795155	328.568848	988.315247	-43.936237	271.136902	1075.463013	-67.262238	397.578461	899.411438	-55.748085	304.621490	822.571594	-38.627857	247.928131	760.405823	-50.421181	183.556931	702.208252	-70.804344	287.015930	727.624756	-82.586601	95.502861	613.940369	-99.296936	142.953094	614.633545	-174.559677	41.915066	600.094299	-155.821701	287.484192	487.814697	-133.786011	177.761627	497.547668	-67.074173	76.024101	916.425659	-462.569977	123.146935	840.837952	-459.962158	170.482346	869.155090	-458.036133	161.881393	767.371582	-437.931427	207.880051	656.757507	-418.226288	167.064590	552.782166	-448.508545	169.556122	466.019562	-440.992798	169.428650	381.191162	-425.516296	225.188324	470.682007	-414.059265	167.900421	253.415359	-403.784302	0.000000	0.000000	-0.000000	124.773361	223.782059	-362.101471	399.143646	183.111572	-373.923889	292.270630	169.248245	-438.558533	-224.408615	892.812988	-252.746353	-12.553713	84.589119	-456.085754	-21.612162	80.946617	-55.970154	
1753	8.7650	556.481262	1351.668091	-127.057228	591.594116	1343.065430	-434.226044	524.020996	1415.174072	-280.379242	525.060364	1254.445923	-280.143463	596.887207	1079.376221	-23.206505	728.160767	855.287781	-58.038105	595.366821	1065.676270	-541.786133	716.681091	865.293213	-440.579468	0.000000	0.000000	-0.000000	165.361694	1162.734619	-448.638580	149.231918	1211.771484	-135.941086	145.562271	1107.128418	-425.012604	157.069305	1159.427612	-156.238022	22.279993	1252.409668	-247.496964	21.931822	1236.541626	-350.926697	70.846474	1135.464355	-79.702934	54.201954	1039.023560	-462.336945	170.090683	1061.489624	-46.886890	246.843903	1029.615601	-42.734329	327.453308	987.891663	-43.943138	270.101013	1075.079590	-67.227364	396.122650	898.997742	-55.768177	303.378815	822.159546	-38.627434	246.631760	759.997192	-50.464104	182.203232	701.738464	-70.835747	285.604675	727.051575	-82.813385	94.359154	613.425171	-99.416595	140.546127	613.881226	-175.015594	39.961185	600.268372	-155.060944	286.482422	487.611511	-133.767212	176.714783	497.168915	-67.123276	74.935837	916.202759	-462.460632	122.115204	840.684143	-459.899017	169.420319	869.098572	-458.043671	161.020172	767.280945	-437.876495	207.319244	656.817017	-418.155579	166.783401	552.746216	-448.442810	169.477615	465.978638	-440.924896	169.590958	381.158203	-425.474945	225.129990	470.771210	-414.005890	168.451523	253.298798	-403.700989	0.000000	0.000000	-0.000000	125.420593	223.541626	-362.069427	399.919006	183.723907	-373.928833	293.070160	169.551331	-438.541473	-224.390152	892.811584	-252.740601	-12.551238	84.586281	-456.084412	-21.596598	80.943726	-55.974724	
